<svg xmlns="http://www.w3.org/2000/svg" xmlns:xlink="http://www.w3.org/1999/xlink" viewBox="0 0 1500 996">
  <defs>
    <clipPath id="clip-path" transform="translate(711 290)"><path id="clipPath" d="M192.73,343.83a39.11,39.11,0,0,1,37.56-68.62V68a12,12,0,0,0-12-12H16.69a12,12,0,0,0-12,12V331.83a12,12,0,0,0,12,12Z" style="fill:none;stroke:#fff;stroke-miterlimit:10"/></clipPath>
  </defs>
  <title>card-template-clip</title>
  <g id="playerInfo">
    <g id="playerImage">
      <g style="clip-path:url(#clip-path)">
        <image
        width="1500"
        height="996"
        xlink:href="http://www.tpstampede.ca/images/blackbox.jpg"/></g><path id="clipPath-2" data-name="clipPath" d="M192.73,343.83a39.11,39.11,0,0,1,37.56-68.62V68a12,12,0,0,0-12-12H16.69a12,12,0,0,0-12,12V331.83a12,12,0,0,0,12,12Z" transform="translate(711 290)" style="fill:none;stroke:#fff;stroke-miterlimit:10"/></g><path
        id="dataBackground"
        d="M245.49,309.94a32.88,32.88,0,1,1-9.14-22.75V69.08s-.24-21.78-22-21.78h-192S4.69,47.39,4.69,29.87V6.69H14c0,15.12,15.28,15.09,15.28,15.09H225.36c19.91,0,20.13,19.88,20.13,19.88V309.94"
        transform="translate(711 290)"
        style="fill:#f7f5e8;stroke:#000;stroke-miterlimit:10"/>
    <g id="data">
      <text transform="translate(762.22 329.74)" style="font-size:15px;font-family:Arial-BoldItalicMT, Arial;font-weight:700;font-style:italic">EDMON<tspan x="55.83" y="0" style="letter-spacing:-0.01806640625em">T</tspan>
        <tspan x="64.72" y="0" style="letter-spacing:-0.00003255208333333333em">ON
        </tspan>
        <tspan x="91.39" y="0" style="fill:#f4520b">OILERS</tspan>
      </text>
      <g id="logo"><path d="M237.77,333.59a1.58,1.58,0,1,0-1.58,1.59,1.57,1.57,0,0,0,1.58-1.59h0m-2.83,0a1.25,1.25,0,0,1,2.49,0h0a1.24,1.24,0,0,1-2.48,0" transform="translate(711 290)" style="fill:#0038a8"/><path d="M236.84,334.5l-.36-.77a.53.53,0,0,0,.3-.7.54.54,0,0,0-.48-.34h-.76v1.81h.33v-.73h.24l.35.73h.38Zm-.54-1.08h-.43V333h.43a.21.21,0,0,1,.2.19v0a.2.2,0,0,1-.19.19h0" transform="translate(711 290)" style="fill:#0038a8"/><path d="M214.22,280.58c3.52,5.51,5.1,7.55,5.1,10.63a6.82,6.82,0,0,1-13.64,0c0-3.1,1.59-5.13,5.1-10.64a29.39,29.39,0,1,0,3.44,0" transform="translate(711 290)" style="fill:#0038a8"/><path d="M212.5,336.63a26.71,26.71,0,0,0,6.88-52.54,12,12,0,0,1,2.62,7.13,9.5,9.5,0,0,1-19,0,12.11,12.11,0,0,1,2.62-7.12,26.72,26.72,0,0,0,6.87,52.54" transform="translate(711 290)" style="fill:#fff"/><path
        d="M218.06,313.12h-1.91v3.06a1.12,1.12,0,0,1-2.22,0v-3.9h2.22v-2.89h-2.23v-2.26a1.11,1.11,0,1,1,2.22,0h0v1.4h1.92v-6.48H210v4a1.43,1.43,0,0,1,1.43,1.42v9a.81.81,0,0,1-.81.81h0v16.37a2.15,2.15,0,0,1-.9,1.89,22.85,22.85,0,0,0,6.29-.08s2.1-.41,2.1-2.27V313.11Z"
        transform="translate(711 290)"
        style="fill:#0038a8"/><path
        d="M210,313.12H208v3.36a.81.81,0,1,1-1.61,0v-9.65a.81.81,0,0,1,.81-.81v-4h-4.16v4a.81.81,0,0,1,.8.81v9.65a.81.81,0,0,1-.8.81h0v14.26a1.61,1.61,0,0,1-1,1.69,22.42,22.42,0,0,0,5.93,2.05,1.59,1.59,0,0,0,1.92-1.64Z"
        transform="translate(711 290)"
        style="fill:#0038a8"/><path
        d="M202.46,331.55V317.29a.81.81,0,0,1-.81-.81h0v-9.65a.81.81,0,0,1,.81-.81h0v-4h-4.17v4a.82.82,0,0,1,.82.8h0v9.65a.81.81,0,0,1-.81.81h0V327c0,2-1,2.35-1.59,2.38a22.41,22.41,0,0,0,4.32,3.27s1.43.56,1.43-1.1m32.18-23v-4.37a2.13,2.13,0,0,0-2.11-2.12H230a2.12,2.12,0,0,0-2.12,2.12h0V310a1.44,1.44,0,0,0,.43.94l3.34,3a1.46,1.46,0,0,1,.42.94v1.29a1.14,1.14,0,1,1-2.27,0h0v-3h-1.92v16.63a20.69,20.69,0,0,0,6.72-15.2v-.86a1.44,1.44,0,0,0-.41-.94l-3.34-3a1.43,1.43,0,0,1-.42-.93v-2a.82.82,0,1,1,1.64,0h0v1.7Z"
        transform="translate(711 290)"
        style="fill:#0038a8"/><path
        d="M197.69,327V304.17a2.12,2.12,0,0,0-2.12-2.12h-3.08a2.12,2.12,0,0,0-2.12,2.12h0v10.38a20.53,20.53,0,0,0,5.21,13.64c.63.83,2.11,1.06,2.11-1.19m28.81-10.52v-4.73c0-.81-.91-1.18-.91-1.18s.91-.38.91-1.19v-5.21a2.12,2.12,0,0,0-2.12-2.12h-5.7v4a.81.81,0,0,1,.8.81v9.65a.81.81,0,0,1-.8.81h0v15.9a2.65,2.65,0,0,1-.79,1.9,23,23,0,0,0,4.3-1.49s1-.48,1-2.26V317.28a1.14,1.14,0,0,1-1.15-1.13h0v-3.53a.88.88,0,0,1,1.75,0v18.91a5.15,5.15,0,0,1-.18,1.36,21.53,21.53,0,0,0,3.19-2.16s.52-.43.52-2.5V317.28a.81.81,0,0,1-.82-.8h0"
        transform="translate(711 290)"
        style="fill:#0038a8"/><path d="M194,306a1.12,1.12,0,0,0-1.12,1.12v9a1.12,1.12,0,0,0,2.23,0v-9A1.12,1.12,0,0,0,194,306m29,3.36a1,1,0,0,0,1-1V307a1,1,0,0,0-1.92,0v1.44a1,1,0,0,0,1,1" transform="translate(711 290)" style="fill:#fff"/><path d="M217.47,291.31c0-3.48-3-5.35-5-10.2-1.94,4.86-5,6.72-5,10.2a5,5,0,0,0,9.93,0" transform="translate(711 290)" style="fill:#d14414"/></g>
      <text transform="translate(757.62 303.31)" style="font-size:13px;font-family:Arial-BoldMT, Arial;font-weight:700">CONNOR MCD<tspan x="90.99" y="0" style="letter-spacing:-0.07421875em">A</tspan>
        <tspan x="99.42" y="0">VID</tspan>
      </text>
    </g>
  </g>
</svg>
