<svg xmlns="http://www.w3.org/2000/svg" xmlns:xlink="http://www.w3.org/1999/xlink" width="250" height="350" filter="url(#filter)" viewBox="0 0 250 350">
  <filter id="filter" x="-20%" y="-20%" width="140%" height="140%" filterUnits="objectBoundingBox" primitiveUnits="userSpaceOnUse" color-interpolation-filters="linearRGB">
    <feTurbulence type="fractalNoise" baseFrequency="0.5 0.5" numOctaves="1" seed="1" stitchTiles="noStitch" x="0%" y="0%" width="200%" height="100%" result="turbulence"></feTurbulence>
    <feTurbulence type="turbulence" baseFrequency="0.01 0.01" numOctaves="6" seed="1" stitchTiles="stitch" x="0%" y="0%" width="100%" height="100%" result="turbulence1"></feTurbulence>
    <feComposite in="turbulence" in2="turbulence1" operator="over" x="0%" y="0%" width="100%" height="100%" result="composite2"></feComposite>
    <feColorMatrix type="matrix" values="1 0 0 0 0
 1 0 0 0 0
 1 0 0 0 0
 1 0 0 1 0" x="0%" y="0%" width="100%" height="100%" in="composite2" result="colormatrix"></feColorMatrix>
    <feComposite in="SourceGraphic" in2="colormatrix" operator="in" x="0%" y="0%" width="100%" height="100%" result="composite1"></feComposite>
  </filter>
  <defs>
    <clipPath id="clip-path">
      <path id="clipPath" d="M192.73,343.83a39.11,39.11,0,0,1,37.56-68.62V68a12,12,0,0,0-12-12H16.69a12,12,0,0,0-12,12V331.83a12,12,0,0,0,12,12Z" style="fill: none; stroke: rgb(255, 255, 255);"></path>
    </clipPath>
  </defs>
  <rect height="350" width="250" fill="#C8102E"></rect>
  <g id="playerInfo">
    <g style="clip-path: url(&quot;#clip-path&quot;);">
      <image x="5" y="55" width="250" height="250" preserveAspectRatio="xMidYMid slice" xlink:href="https://nhl.bamcontent.com/images/actionshots/8471214.jpg"></image>
      <g>
        <rect transform="translate(0 300)" width="200px" height="70px" style="fill: rgb(247, 245, 232);"></rect>
        <text transform="translate(15 317)" style="font-size: 13px; font-family: Arial-BoldMT, Arial; font-weight: 700; pointer-events: none;">
          <tspan>ALEX</tspan>
        </text>
        <text fill="#e54f4a" transform="translate(15 335)" style="font-size: 18px; font-family: Arial-BoldMT, Arial; font-weight: 700; pointer-events: none;">
          <tspan>OVECHKIN</tspan>
        </text>
      </g>
    </g>
    <path id="clipPath-2" data-name="clipPath" d="M192.73,343.83a39.11,39.11,0,0,1,37.56-68.62V68a12,12,0,0,0-12-12H16.69a12,12,0,0,0-12,12V331.83a12,12,0,0,0,12,12Z" style="fill: none; stroke: rgb(243, 188, 82);"></path>
    <path
      id="dataBackground"
      d="M245.49,309.94a32.88,32.88,0,1,1-9.14-22.75V69.08s-.24-21.78-22-21.78h-192S4.69,47.39,4.69,29.87V6.69H14c0,15.12,15.28,15.09,15.28,15.09H225.36c19.91,0,20.13,19.88,20.13,19.88V309.94"
      style="fill: rgb(247, 245, 232); stroke: rgb(0, 0, 0);"></path>
    <g id="data">
      <text transform="translate(25 39.74)" style="font-size: 15px; font-family: Arial-BoldItalicMT, Arial; font-weight: 700; font-style: italic; pointer-events: none;">
        <tspan textLength="195" style="fill: rgb(229, 79, 74);">WASHINGTON CAPITALS</tspan>
      </text>
      <g id="logo" transform="translate(88 286)">
        <svg height="47px">
          <svg xmlns="http://www.w3.org/2000/svg" viewBox="0 0 24 16">
            <path
              fill="#CF0A2C"
              d="M6.77 5.588l.48-.35.48.35-.184-.564.48-.348h-.592L7.25 4.11l-.184.566h-.592l.48.348zm3.11 0l.478-.35.48.35-.183-.564.48-.348h-.593l-.184-.565-.182.566h-.594l.48.348zm3.108 0l.48-.35.48.35-.183-.564.48-.348h-.594l-.182-.565-.184.566h-.593l.48.348zm-7.398.746l-.035.56h.193l.54-.702H6.13l-.41.548.037-.548H5.56l-.41.548h-.004l.042-.548h-.17l-.04.702h.19zm.4.56h.17l.138-.157h.404l.016.157h.187l-.07-.702H6.64l-.648.702zm.703-.273h-.29l.27-.304.02.305zM7.857 6.4c.054-.14-.02-.226-.226-.226-.162 0-.34.064-.408.227-.117.283.446.144.38.3-.02.052-.09.108-.22.108-.126 0-.166-.05-.14-.134h-.158c-.062.15.028.238.232.238.238 0 .398-.086.458-.23.128-.31-.453-.127-.377-.31.026-.062.11-.095.176-.095.11 0 .158.033.126.124h.157zm.149.494l.125-.3h.383l-.125.3h.157l.29-.702H8.68l-.12.286h-.382l.118-.286H8.14l-.29.702zm.91 0l.29-.702H9.05l-.29.702zm.357 0l.228-.548h.003l.18.548h.212l.29-.702h-.142l-.223.538h-.002l-.173-.538h-.222l-.29.702zm1.789-.476c.068-.164-.057-.244-.27-.244a.61.61 0 0 0-.576.367c-.105.255.024.372.286.372.102 0 .264-.02.38-.062l.137-.327h-.38l-.044.108h.224l-.055.135a.735.735 0 0 1-.206.032c-.217 0-.234-.127-.18-.257a.414.414 0 0 1 .392-.258c.077 0 .163.038.127.136h.162zm.193.476h.158l.242-.587h.268l.048-.115h-.692l-.047.115h.268zm.917.018a.57.57 0 0 0 .562-.37c.103-.245.003-.368-.256-.368s-.46.123-.562.368c-.103.247-.003.37.256.37zm-.093-.37c.067-.165.198-.254.35-.254.152 0 .21.09.14.254-.067.166-.197.255-.35.255-.153 0-.21-.09-.14-.255zm1.371.188l-.175-.538h-.22l-.29.702h.14l.228-.548.18.548h.213l.29-.702h-.14l-.225.538z"></path>
            <path fill="#041E41" d="M22.264 10.192c0 .12.1.22.22.22s.22-.1.22-.22a.22.22 0 0 0-.44 0zm.39 0a.17.17 0 0 1-.17.172.172.172 0 1 1 .172-.172z"></path>
            <path fill="#041E41" d="M22.394 10.317h.047v-.102h.034l.048.102h.052l-.05-.106a.074.074 0 0 0-.024-.142h-.105v.25zm.046-.203h.06c.015 0 .026.012.026.027a.027.027 0 0 1-.027.028h-.06v-.054z"></path>
            <path fill="#CF0A2C" d="M17.687 12.277h-1.672l-.55.674h1.673z"></path>
            <g fill="#041E41">
              <path
                d="M3.736 8.19h.877l.222-.536h-.903c-1.065 0-2.194.642-2.52 1.432-.2.478.09.887.658.887h1.176c.51 0 1.133-.49 1.133-.49l-.55-.233s-.25.188-.52.188H2.184c-.14 0-.2-.137-.125-.316.21-.515.962-.93 1.676-.93zm3.456 1.783l.542-1.31c.23-.557-.12-1.01-.786-1.01h-1.72l-.224.538H6.87c.397 0 .276.294.276.294H5.803c-.534 0-.928.245-1.053.55-.215.52.1.938.703.938h.68c.246 0 .455-.14.455-.14l-.06.14h.664zm7.682-2.319l-.223.537h2.09c.398 0 .276.294.276.294h-1.343c-.534 0-.928.245-1.054.55-.216.52.1.938.702.938h.68c.246 0 .456-.14.456-.14l-.058.14h.662l.543-1.308c.23-.558-.12-1.01-.785-1.01h-1.946zm3.156 2.319l2.133-5.148H19.5l-2.132 5.148zm-5.034-2.319h-.662l-.223.537h.663zm-.961 2.319l.617-1.49h-.662l-.617 1.49zm7.208-1.785c-.205.494.06.895.594.895h1.345c.1 0 .145.08.104.178-.04.1-.153.18-.25.18h-2.46l-.224.534h2.47c.458 0 .874-.104 1.052-.533.204-.492-.062-.893-.594-.893h-1.346c-.098 0-.145-.08-.104-.178a.298.298 0 0 1 .25-.178h2.18l.223-.537h-2.188c-.458 0-.913.197-1.052.533zm-7.97 1.182l.71-1.716h-1.566c-1.23 0-2.166.766-2.557 1.71l-.815 1.97h.663l.77-1.857c.294-.71.94-1.285 1.966-1.285h.656l-.416 1.004c-.055.133-.208.242-.34.242H8.81l-.223.535h1.832c.33 0 .665-.15.85-.602z"></path>
              <path d="M12.76 10.72c-.218.532-.21 1.265.02 1.634l1.31 2.096.86-1.25-1.593-1.324c-.168-.14-.216-.47-.105-.734l4.085-9.865h-.663l-2.642 6.38h-.785l-.223.536h.786l-1.05 2.528z"></path>
            </g>
            <path
              d="M15.496 9.02c-.115 0-.246.093-.294.208s.007.21.122.21h1.01c.147 0 .332-.106.386-.235l.108-.263s-.19.08-.4.08h-.932zm-9.871 0c-.115 0-.247.093-.294.208s.008.21.123.21h1.01c.147 0 .332-.106.386-.235l.108-.263s-.19.08-.402.08h-.93z"
              fill="#FFF"></path>
          </svg>
        </svg>
      </g>
      <text transform="translate(20 15)" style="font-size: 15px; font-family: Arial-BoldMT, Arial; font-weight: 700; pointer-events: none;">
        <tspan fill="#fff">
          <tspan>#8</tspan>·<tspan>LW</tspan>
        </tspan>
      </text>
    </g>
  </g>
</svg>
